<svg width="40" height="42" viewBox="0 0 40 42" fill="none" xmlns="http://www.w3.org/2000/svg">
<rect y="0.79248" width="40" height="40.7865" rx="20" fill="#F6CB73"/>
<path d="M14.9069 19.54C14.9069 18.9865 15.0471 18.4422 15.3139 17.9595C15.5807 17.4768 15.9652 17.0718 16.4305 16.7833C16.8958 16.4947 17.4264 16.3324 17.9712 16.3119C18.5161 16.2914 19.0571 16.4133 19.5422 16.666C20.0273 16.9187 20.4403 17.2937 20.7416 17.755C21.043 18.2163 21.2225 18.7485 21.2629 19.3004C21.3034 19.8524 21.2035 20.4057 20.9727 20.9072C20.742 21.4087 20.3882 21.8416 19.9453 22.1644C20.8643 22.5362 21.6562 23.1724 22.2236 23.995C22.791 24.8176 23.1093 25.7906 23.1391 26.7944C23.1424 26.8588 23.1329 26.9233 23.1113 26.9839C23.0897 27.0446 23.0563 27.1003 23.0132 27.1477C22.9701 27.1951 22.9181 27.2334 22.8603 27.2601C22.8024 27.2869 22.7399 27.3016 22.6764 27.3035C22.6129 27.3054 22.5496 27.2944 22.4903 27.2711C22.431 27.2479 22.3769 27.2128 22.3311 27.1681C22.2854 27.1233 22.2489 27.0697 22.2238 27.0104C22.1987 26.9511 22.1855 26.8873 22.185 26.8228C22.1524 25.7369 21.7046 24.7064 20.9363 23.95C20.1681 23.1935 19.1399 22.7705 18.0696 22.7705C16.9993 22.7705 15.9711 23.1935 15.2028 23.95C14.4346 24.7064 13.9867 25.7369 13.9541 26.8228C13.9477 26.9493 13.8928 27.0683 13.8011 27.1542C13.7093 27.2401 13.5881 27.2862 13.4634 27.2824C13.3386 27.2787 13.2202 27.2256 13.1336 27.1343C13.047 27.0431 12.9991 26.9211 13 26.7944C13.0301 25.7859 13.3513 24.8086 13.9237 23.9838C14.4961 23.1589 15.2946 22.5229 16.22 22.1547C15.813 21.8553 15.4819 21.4622 15.2536 21.0077C15.0254 20.5531 14.9065 20.0501 14.9069 19.54ZM18.0893 17.2786C17.7968 17.2786 17.5071 17.3371 17.2368 17.4507C16.9665 17.5644 16.721 17.731 16.5141 17.9409C16.3072 18.1509 16.1431 18.4002 16.0312 18.6746C15.9192 18.9489 15.8616 19.243 15.8616 19.54C15.8616 19.8369 15.9192 20.131 16.0312 20.4053C16.1431 20.6797 16.3072 20.929 16.5141 21.139C16.721 21.349 16.9665 21.5155 17.2368 21.6292C17.5071 21.7428 17.7968 21.8013 18.0893 21.8013C18.6801 21.8013 19.2467 21.5631 19.6645 21.139C20.0823 20.7149 20.317 20.1397 20.317 19.54C20.317 18.9402 20.0823 18.365 19.6645 17.9409C19.2467 17.5169 18.6801 17.2786 18.0893 17.2786ZM24.6132 14.0481C24.7398 14.0481 24.8612 14.0991 24.9507 14.19C25.0403 14.2809 25.0906 14.4042 25.0906 14.5327V15.9864H26.5226C26.6492 15.9864 26.7707 16.0375 26.8602 16.1283C26.9497 16.2192 27 16.3425 27 16.471C27 16.5995 26.9497 16.7227 26.8602 16.8136C26.7707 16.9045 26.6492 16.9556 26.5226 16.9556H25.0906V18.4093C25.0906 18.5378 25.0403 18.6611 24.9507 18.7519C24.8612 18.8428 24.7398 18.8939 24.6132 18.8939C24.4866 18.8939 24.3652 18.8428 24.2757 18.7519C24.1861 18.6611 24.1358 18.5378 24.1358 18.4093V16.9556H22.7038C22.5772 16.9556 22.4557 16.9045 22.3662 16.8136C22.2767 16.7227 22.2264 16.5995 22.2264 16.471C22.2264 16.3425 22.2767 16.2192 22.3662 16.1283C22.4557 16.0375 22.5772 15.9864 22.7038 15.9864H24.1358V14.5327C24.1358 14.4042 24.1861 14.2809 24.2757 14.19C24.3652 14.0991 24.4866 14.0481 24.6132 14.0481Z" fill="white"/>
</svg>
