<svg width="40" height="42" viewBox="0 0 40 42" fill="none" xmlns="http://www.w3.org/2000/svg">
<rect y="0.320801" width="40" height="40.7865" rx="20" fill="#F6CB73"/>
<path d="M22.4284 15.3255C23.3621 14.3694 24.7282 14.3495 25.4842 15.1236C26.2421 15.8991 26.2219 17.3014 25.2869 18.2574L23.7092 19.8728C23.6203 19.9668 23.5713 20.0927 23.5726 20.2233C23.5739 20.3538 23.6254 20.4787 23.7161 20.5708C23.8067 20.663 23.9293 20.7152 24.0574 20.7162C24.1854 20.7171 24.3087 20.6668 24.4007 20.5759L25.979 18.9605C27.2233 17.6864 27.3796 15.6528 26.1763 14.4205C24.9717 13.1876 22.9812 13.3483 21.7356 14.6224L18.5802 17.8538C17.3359 19.1279 17.1796 21.1615 18.3829 22.3931C18.4278 22.4408 18.4816 22.4788 18.5411 22.505C18.6007 22.5313 18.6647 22.5452 18.7295 22.5459C18.7944 22.5466 18.8587 22.5342 18.9188 22.5093C18.9788 22.4844 19.0334 22.4475 19.0794 22.4009C19.1254 22.3543 19.1617 22.2988 19.1864 22.2376C19.2111 22.1765 19.2236 22.111 19.2232 22.0448C19.2228 21.9787 19.2095 21.9134 19.1841 21.8526C19.1586 21.7917 19.1216 21.7367 19.075 21.6907C18.3171 20.9152 18.338 19.5129 19.2723 18.5569L22.4284 15.3255Z" fill="white"/>
<path d="M21.6181 19.0332C21.5265 18.9396 21.4023 18.8869 21.2727 18.8867C21.1431 18.8865 21.0187 18.9389 20.9269 19.0322C20.8351 19.1255 20.7834 19.2522 20.7833 19.3844C20.7831 19.5165 20.8344 19.6434 20.9259 19.737C21.6838 20.5124 21.6637 21.914 20.7286 22.8707L17.5726 26.1015C16.6382 27.0575 15.2721 27.0775 14.5161 26.3033C13.7582 25.5278 13.7791 24.1256 14.7134 23.1695L16.2918 21.5542C16.3371 21.5078 16.3729 21.4528 16.3974 21.3924C16.4218 21.3319 16.4343 21.2671 16.4342 21.2017C16.4341 21.1362 16.4213 21.0715 16.3967 21.0111C16.372 20.9507 16.3359 20.8959 16.2905 20.8497C16.245 20.8035 16.1911 20.767 16.1318 20.742C16.0725 20.7171 16.0089 20.7044 15.9448 20.7045C15.8806 20.7046 15.8171 20.7176 15.7579 20.7428C15.6987 20.7679 15.6449 20.8047 15.5996 20.851L14.0213 22.4664C12.777 23.7412 12.6207 25.7741 13.824 27.0064C15.0286 28.24 17.0191 28.0787 18.2647 26.8046L21.4208 23.5732C22.6651 22.2998 22.8214 20.2648 21.6181 19.0332Z" fill="white"/>
</svg>
