<svg width="40" height="42" viewBox="0 0 40 42" fill="none" xmlns="http://www.w3.org/2000/svg">
<rect y="0.320801" width="40" height="40.7865" rx="20" fill="#837EDE"/>
<path d="M14.3333 25.4726C13.9667 25.4726 13.6527 25.3394 13.3913 25.0729C13.13 24.8064 12.9996 24.4865 13 24.113V15.9557C13 15.5819 13.1307 15.2617 13.392 14.9952C13.6533 14.7287 13.9671 14.5957 14.3333 14.5962H18.3333L19.6667 15.9557H25C25.3667 15.9557 25.6807 16.089 25.942 16.3554C26.2033 16.6219 26.3338 16.9419 26.3333 17.3153V19.5585C26.1222 19.4679 25.9027 19.4083 25.6747 19.3798C25.4467 19.3512 25.2218 19.3542 25 19.3886V17.3153H19.1167L17.7833 15.9557H14.3333V24.113H19.7333L19.6667 24.181V25.4726H14.3333ZM21 26.8321V24.7418L24.6833 21.0031C24.7833 20.9011 24.8944 20.8275 25.0167 20.7821C25.1389 20.7368 25.2611 20.7142 25.3833 20.7142C25.5167 20.7142 25.6444 20.7398 25.7667 20.791C25.8889 20.8422 26 20.9186 26.1 21.0201L26.7167 21.6489C26.8056 21.7508 26.8751 21.8641 26.9253 21.9887C26.9756 22.1134 27.0004 22.238 27 22.3626C27 22.4872 26.9778 22.6148 26.9333 22.7453C26.8889 22.8758 26.8167 22.9919 26.7167 23.0934L23.05 26.8321H21ZM22 25.8125H22.6333L24.65 23.7392L24.35 23.4163L24.0333 23.1104L22 25.1667V25.8125ZM24.35 23.4163L24.0333 23.1104L24.65 23.7392L24.35 23.4163Z" fill="white"/>
</svg>
