<svg width="40" height="42" viewBox="0 0 40 42" fill="none" xmlns="http://www.w3.org/2000/svg">
<rect y="0.320801" width="40" height="40.7865" rx="20" fill="#F6CB73"/>
<path d="M19.9504 26.8672H18.461C16.5248 26.8672 14.9858 25.3412 14.9858 23.4214V21.4524H15.9787V23.4214C15.9787 24.7997 17.0709 25.8827 18.461 25.8827H19.9504V26.8672ZM25.9078 27.8517H27L24.7163 22.4369H23.6241L21.3404 27.8517H22.4326L22.8298 26.8672H25.461L25.9078 27.8517ZM23.2766 25.8827L24.1702 23.7168L25.0638 25.8827H23.2766ZM25.9078 20.4679H24.9149V18.4989C24.9149 17.1206 23.8227 16.0377 22.4326 16.0377H20.4468V15.0532H22.4326C24.3688 15.0532 25.9078 16.5791 25.9078 18.4989V20.4679ZM18.9574 15.5454V14.5609H16.4752V13.5764H15.4823V14.5609H13V15.5454H17.0709C16.9716 15.9884 16.6738 16.776 15.9787 17.5144C15.6809 17.1698 15.4326 16.8253 15.2837 16.5299H14.1418C14.3404 17.0222 14.6879 17.6129 15.1844 18.1544C14.7872 18.4989 14.1915 18.7943 13.4965 19.0404L13.844 19.9757C14.7376 19.6311 15.4326 19.2373 15.9787 18.8435C16.5248 19.2865 17.2199 19.6803 18.1135 19.9757L18.461 19.0404C17.766 18.7943 17.1702 18.4497 16.7234 18.1544C17.6667 17.1698 17.9645 16.1361 18.0638 15.5454H18.9574Z" fill="white"/>
</svg>
