<svg width="40" height="42" viewBox="0 0 40 42" fill="none" xmlns="http://www.w3.org/2000/svg">
<rect y="0.245361" width="40" height="40.7865" rx="20" fill="#F6CB73"/>
<path d="M14 13.501H13V26.7566C13 27.027 13.1054 27.2864 13.2929 27.4776C13.4804 27.6688 13.7348 27.7763 14 27.7763H27V26.7566H14V13.501Z" fill="white"/>
<path d="M27 17.0698H23.5V18.0895H25.295L21.5 21.9591L19.355 19.7668C19.3085 19.719 19.2532 19.6811 19.1923 19.6552C19.1314 19.6294 19.066 19.616 19 19.616C18.934 19.616 18.8686 19.6294 18.8077 19.6552C18.7468 19.6811 18.6915 19.719 18.645 19.7668L15 23.4886L15.705 24.2075L19 20.8477L21.145 23.0399C21.1915 23.0877 21.2468 23.1257 21.3077 23.1515C21.3686 23.1774 21.434 23.1908 21.5 23.1908C21.566 23.1908 21.6314 23.1774 21.6923 23.1515C21.7532 23.1257 21.8085 23.0877 21.855 23.0399L26 18.8083V20.6386H27V17.0698Z" fill="white"/>
</svg>
