<svg width="40" height="42" viewBox="0 0 40 42" fill="none" xmlns="http://www.w3.org/2000/svg">
<rect y="0.245361" width="40" height="40.7865" rx="20" fill="#F6CB73"/>
<path d="M14.7059 27.7763C14.5187 27.7763 14.3391 27.7011 14.2067 27.5672C14.0744 27.4333 14 27.2518 14 27.0625V21.3524C14 21.1631 14.0744 20.9815 14.2067 20.8477C14.3391 20.7138 14.5187 20.6386 14.7059 20.6386C14.8931 20.6386 15.0726 20.7138 15.205 20.8477C15.3374 20.9815 15.4118 21.1631 15.4118 21.3524V27.0625C15.4118 27.2518 15.3374 27.4333 15.205 27.5672C15.0726 27.7011 14.8931 27.7763 14.7059 27.7763ZM18.2353 27.7763C18.0481 27.7763 17.8685 27.7011 17.7362 27.5672C17.6038 27.4333 17.5294 27.2518 17.5294 27.0625V14.2147C17.5294 14.0254 17.6038 13.8439 17.7362 13.71C17.8685 13.5762 18.0481 13.501 18.2353 13.501C18.4225 13.501 18.602 13.5762 18.7344 13.71C18.8668 13.8439 18.9412 14.0254 18.9412 14.2147V27.0625C18.9412 27.2518 18.8668 27.4333 18.7344 27.5672C18.602 27.7011 18.4225 27.7763 18.2353 27.7763ZM21.7647 27.7763C21.5775 27.7763 21.398 27.7011 21.2656 27.5672C21.1332 27.4333 21.0588 27.2518 21.0588 27.0625V18.4973C21.0588 18.308 21.1332 18.1265 21.2656 17.9926C21.398 17.8588 21.5775 17.7836 21.7647 17.7836C21.9519 17.7836 22.1315 17.8588 22.2638 17.9926C22.3962 18.1265 22.4706 18.308 22.4706 18.4973V27.0625C22.4706 27.2518 22.3962 27.4333 22.2638 27.5672C22.1315 27.7011 21.9519 27.7763 21.7647 27.7763ZM25.2941 27.7763C25.1069 27.7763 24.9274 27.7011 24.795 27.5672C24.6626 27.4333 24.5882 27.2518 24.5882 27.0625V24.2074C24.5882 24.0181 24.6626 23.8366 24.795 23.7027C24.9274 23.5689 25.1069 23.4937 25.2941 23.4937C25.4813 23.4937 25.6609 23.5689 25.7933 23.7027C25.9256 23.8366 26 24.0181 26 24.2074V27.0625C26 27.2518 25.9256 27.4333 25.7933 27.5672C25.6609 27.7011 25.4813 27.7763 25.2941 27.7763Z" fill="white"/>
</svg>
