<svg width="40" height="42" viewBox="0 0 40 42" fill="none" xmlns="http://www.w3.org/2000/svg">
<rect y="0.79248" width="40" height="40.7865" rx="20" fill="#F6CB73"/>
<path d="M26.7376 16.9405L24.1815 14.3161C24.0126 14.1445 23.784 14.0481 23.5457 14.0481C23.3074 14.0481 23.0788 14.1445 22.9099 14.3161L13.8481 23.5592L13.0207 27.2065C12.9922 27.3399 12.9931 27.478 13.0236 27.6109C13.054 27.7438 13.1131 27.8681 13.1966 27.9747C13.28 28.0813 13.3858 28.1674 13.506 28.2269C13.6263 28.2864 13.758 28.3177 13.8916 28.3186C13.9539 28.325 14.0166 28.325 14.0789 28.3186L17.6888 27.4734L26.7376 18.2393C26.9057 18.0668 27 17.8333 27 17.5899C27 17.3465 26.9057 17.113 26.7376 16.9405ZM17.2533 26.6728L13.8698 27.3978L14.6406 24.0084L21.4207 17.1095L24.0334 19.7783L17.2533 26.6728ZM24.6169 19.1334L22.0042 16.4645L23.5196 14.9255L26.0888 17.5943L24.6169 19.1334Z" fill="white"/>
</svg>
